#!OML:ASF G:\JayActor3\Patient Classification 1\Patient 1\Session 2\male.ASF
:FULLY-SPECIFIED
:DEGREES
927
root 21.5973 16.0466 -1.53995 -802.291 71.4082 -74.844
lowerback 12.4942 1.90485 -5.03917
upperback 3.4451 1.99838 -0.910338
thorax -3.51227 1.07317 1.57665
lowerneck -9.99626 -5.82021 -4.01078
upperneck 1.68777 -8.15223 23.2028
head 3.44221 -3.02623 7.3566
rclavicle -7.95139e-016 1.90833e-014
rhumerus -11.7033 30.4593 -75.8136
rradius 64.6145
rwrist -17.2701
rhand -10.4594 11.4689
rfingers 7.12502
rthumb 15.5412 -17.9266
lclavicle -7.95139e-016 1.90833e-014
lhumerus -42.2546 -24.4973 77.8492
lradius 64.77
lwrist 17.9494
lhand -29.7502 24.1066
lfingers 7.12502
lthumb -3.07626 54.0641
rfemur -26.7998 -16.9711 21.359
rtibia 65.9977
rfoot -21.6085 -12.3408
rtoes 12.2168
lfemur -25.5202 13.9233 -12.8911
ltibia 49.3888
lfoot -9.23093 2.34392
ltoes 0.123056
928
root 21.7955 16.0397 -1.50971 -804.234 71.466 -76.4606
lowerback 13.0415 1.78459 -5.21717
upperback 3.53844 1.80037 -0.674701
thorax -3.71147 0.981028 1.94166
lowerneck -9.87471 -5.77748 -4.03617
upperneck 1.74503 -8.0994 23.2379
head 3.43316 -3.00331 7.37966
rclavicle 1.19271e-014 9.54166e-015
rhumerus -11.6567 30.5589 -74.0024
rradius 64.4608
rwrist -17.9292
rhand -10.3293 11.4574
rfingers 7.12502
rthumb 15.6665 -17.9283
lclavicle 1.19271e-014 9.54166e-015
lhumerus -37.45 -25.6032 77.6253
lradius 66.2631
lwrist 17.8464
lhand -30.5482 23.9678
lfingers 7.12502
lthumb -3.84685 53.9128
rfemur -28.3218 -16.8569 19.6137
rtibia 63.4333
rfoot -23.5514 -13.0082
rtoes 14.021
lfemur -24.2847 14.1372 -12.6622
ltibia 49.2883
lfoot -10.2171 2.06806
ltoes 0.860094
929
root 21.9867 16.053 -1.48564 -806.096 71.4188 -78.0415
lowerback 13.5376 1.6379 -5.27511
upperback 3.63837 1.58727 -0.420461
thorax -3.86874 0.880164 2.26661
lowerneck -9.79433 -5.69978 -4.02905
upperneck 1.90927 -8.02186 23.2192
head 3.4544 -2.96089 7.3811
rclavicle 1.78906e-014 5.08889e-014
rhumerus -11.3763 30.7529 -72.0298
rradius 64.5235
rwrist -18.5964
rhand -10.2488 11.453
rfingers 7.12502
rthumb 15.7441 -17.9266
lclavicle 1.78906e-014 5.08889e-014
lhumerus -32.3808 -26.764 76.9771
lradius 67.8193
lwrist 17.8879
lhand -31.3203 23.8714
lfingers 7.12502
lthumb -4.59247 53.8017
rfemur -29.6685 -16.5285 17.9232
rtibia 60.3477
rfoot -25.4281 -13.6064
rtoes 15.8659
lfemur -22.982 14.2809 -12.3059
ltibia 48.9484
lfoot -10.9638 1.7562
ltoes 1.29072
930
root 22.172 16.0858 -1.46602 -807.8 71.2908 -79.515
lowerback 13.952 1.46149 -5.24438
upperback 3.74909 1.35389 -0.156934
thorax -3.964 0.767403 2.56022
lowerneck -9.74788 -5.58527 -3.99163
upperneck 2.16566 -7.91332 23.1368
head 3.4991 -2.89806 7.35856
rclavicle -3.97569e-016 -2.8625e-014
rhumerus -10.8373 30.9907 -69.9295
rradius 64.8299
rwrist -19.242
rhand -10.2214 11.4506
rfingers 7.12502
rthumb 15.7704 -17.927
lclavicle -3.97569e-016 -2.8625e-014
lhumerus -27.0753 -27.9302 75.8375
lradius 69.3918
lwrist 18.0943
lhand -32.0556 23.829
lfingers 7.12502
lthumb -5.30243 53.7427
rfemur -30.8609 -15.9991 16.2485
rtibia 56.8759
rfoot -27.2099 -14.1597
rtoes 17.5936
lfemur -21.6185 14.3572 -11.8495
ltibia 48.3605
lfoot -11.4613 1.41003
ltoes 1.41298
931
root 22.3528 16.137 -1.44914 -809.273 71.109 -80.808
lowerback 14.2675 1.25708 -5.15649
upperback 3.87179 1.09929 0.107687
thorax -3.98766 0.641985 2.83091
lowerneck -9.72551 -5.43543 -3.92604
upperneck 2.50192 -7.77235 22.9805
head 3.56161 -2.81636 7.30939
rclavicle 5.56597e-015 -9.54166e-015
rhumerus -10.0212 31.2387 -67.7272
rradius 65.3845
rwrist -19.8522
rhand -10.2283 11.4429
rfingers 7.12502
rthumb 15.7638 -17.9352
lclavicle 5.56597e-015 -9.54166e-015
lhumerus -21.5728 -29.0406 74.1524
lradius 70.9485
lwrist 18.4648
lhand -32.7346 23.8343
lfingers 7.12502
lthumb -5.95803 53.7306
rfemur -31.9339 -15.2958 14.5539
rtibia 53.1642
rfoot -28.8747 -14.6977
rtoes 19.0501
lfemur -20.1889 14.3814 -11.3249
ltibia 47.5148
lfoot -11.7166 1.05168
ltoes 1.28191
932
root 22.5302 16.2064 -1.43403 -810.449 70.8971 -81.8493
lowerback 14.4849 1.03043 -5.03328
upperback 4.00204 0.8269 0.367402
thorax -3.94605 0.505722 3.08254
lowerneck -9.71654 -5.25363 -3.83451
upperneck 2.91441 -7.60175 22.7449
head 3.63967 -2.71862 7.2322
rclavicle 3.97569e-015 -1.27222e-014
rhumerus -8.92016 31.4868 -65.4406
rradius 66.1684
rwrist -20.426
rhand -10.238 11.423
rfingers 7.12502
rthumb 15.7544 -17.9558
lclavicle 3.97569e-015 -1.27222e-014
lhumerus -15.9328 -30.0221 71.893
lradius 72.4725
lwrist 18.9777
lhand -33.3332 23.8738
lfingers 7.12502
lthumb -6.53584 53.753
rfemur -32.9276 -14.4538 12.8167
rtibia 49.3527
rfoot -30.4194 -15.2408
rtoes 20.1475
lfemur -18.6722 14.3652 -10.7617
ltibia 46.3912
lfoot -11.7418 0.723175
ltoes 0.961822
